{
  "accessors": [
    {
      "bufferView": 1,
      "componentType": 5126,
      "count": 704,
      "max": [
        1.296975016593933,
        1.467857003211975,
        0.5354459881782532
      ],
      "min": [
        -1.9426230192184448,
        -1.4418890476226807,
        -1.5625569820404053
      ],
      "type": "VEC3"
    },
    {
      "bufferView": 1,
      "byteOffset": 8448,
      "componentType": 5126,
      "count": 704,
      "max": [
        0.9995854496955872,
        1.0,
        0.9941064715385437
      ],
      "min": [
        -0.9995854496955872,
        -0.9994354248046875,
        -1.0
      ],
      "type": "VEC3"
    },
    {
      "bufferView": 0,
      "componentType": 5125,
      "count": 3639,
      "type": "SCALAR"
    },
    {
      "bufferView": 1,
      "byteOffset": 16896,
      "componentType": 5126,
      "count": 938,
      "max": [
        0.8848459720611572,
        0.8175359964370728,
        -1.654994010925293
      ],
      "min": [
        -1.530493974685669,
        -0.913299024105072,
        -4.203481197357178
      ],
      "type": "VEC3"
    },
    {
      "bufferView": 1,
      "byteOffset": 28152,
      "componentType": 5126,
      "count": 938,
      "max": [
        0.9997878670692444,
        0.9999194145202637,
        0.9996173977851868
      ],
      "min": [
        -0.9997878670692444,
        -0.9997584223747253,
        -0.9913769364356995
      ],
      "type": "VEC3"
    },
    {
      "bufferView": 0,
      "byteOffset": 14556,
      "componentType": 5125,
      "count": 5232,
      "type": "SCALAR"
    },
    {
      "bufferView": 1,
      "byteOffset": 39408,
      "componentType": 5126,
      "count": 310,
      "max": [
        0.45006099343299866,
        -1.3096339702606201,
        -0.19032999873161316
      ],
      "min": [
        -1.095708966255188,
        -2.7358999252319336,
        -1.1598399877548218
      ],
      "type": "VEC3"
    },
    {
      "bufferView": 1,
      "byteOffset": 43128,
      "componentType": 5126,
      "count": 310,
      "max": [
        1.0,
        0.6727195382118225,
        1.0
      ],
      "min": [
        -1.0,
        -1.0,
        -1.0
      ],
      "type": "VEC3"
    },
    {
      "bufferView": 0,
      "byteOffset": 35484,
      "componentType": 5125,
      "count": 1740,
      "type": "SCALAR"
    },
    {
      "bufferView": 1,
      "byteOffset": 46848,
      "componentType": 5126,
      "count": 80,
      "max": [
        0.623399019241333,
        0.4660530090332031,
        -4.041224002838135
      ],
      "min": [
        -1.2690470218658447,
        -0.913299024105072,
        -4.203481197357178
      ],
      "type": "VEC3"
    },
    {
      "bufferView": 1,
      "byteOffset": 47808,
      "componentType": 5126,
      "count": 80,
      "max": [
        0.9997902512550354,
        0.9999802112579346,
        0.2659001648426056
      ],
      "min": [
        -0.9997902512550354,
        -0.9640007019042969,
        -0.7004345059394836
      ],
      "type": "VEC3"
    },
    {
      "bufferView": 0,
      "byteOffset": 42444,
      "componentType": 5125,
      "count": 240,
      "type": "SCALAR"
    },
    {
      "bufferView": 1,
      "byteOffset": 48768,
      "componentType": 5126,
      "count": 301,
      "max": [
        2.114203929901123,
        2.122122049331665,
        1.5617990493774414
      ],
      "min": [
        -2.6959879398345947,
        -3.123425006866455,
        -1.6872889995574951
      ],
      "type": "VEC3"
    },
    {
      "bufferView": 1,
      "byteOffset": 52380,
      "componentType": 5126,
      "count": 301,
      "max": [
        1.0,
        1.0,
        0.9770543575286865
      ],
      "min": [
        -1.0,
        -1.0,
        -1.0
      ],
      "type": "VEC3"
    },
    {
      "bufferView": 0,
      "byteOffset": 43404,
      "componentType": 5125,
      "count": 1740,
      "type": "SCALAR"
    },
    {
      "bufferView": 1,
      "byteOffset": 55992,
      "componentType": 5126,
      "count": 932,
      "max": [
        0.13456399738788605,
        0.5885040163993835,
        0.8074730038642883
      ],
      "min": [
        -0.7802079916000366,
        -0.6380410194396973,
        0.4877060055732727
      ],
      "type": "VEC3"
    },
    {
      "bufferView": 1,
      "byteOffset": 67176,
      "componentType": 5126,
      "count": 932,
      "max": [
        0.9999254941940308,
        0.99997878074646,
        1.0
      ],
      "min": [
        -0.9999254941940308,
        -0.8702422976493835,
        -0.9973128437995911
      ],
      "type": "VEC3"
    },
    {
      "bufferView": 0,
      "byteOffset": 50364,
      "componentType": 5125,
      "count": 5463,
      "type": "SCALAR"
    },
    {
      "bufferView": 1,
      "byteOffset": 78360,
      "componentType": 5126,
      "count": 161,
      "max": [
        -0.11166500300168991,
        0.0798019990324974,
        4.603519916534424
      ],
      "min": [
        -0.47011899948120117,
        -0.2960970103740692,
        4.265570163726807
      ],
      "type": "VEC3"
    },
    {
      "bufferView": 1,
      "byteOffset": 80292,
      "componentType": 5126,
      "count": 161,
      "max": [
        0.9995966553688049,
        0.9995588660240173,
        1.0
      ],
      "min": [
        -0.9995966553688049,
        -0.9995588660240173,
        -0.6318154335021973
      ],
      "type": "VEC3"
    },
    {
      "bufferView": 0,
      "byteOffset": 72216,
      "componentType": 5125,
      "count": 900,
      "type": "SCALAR"
    },
    {
      "bufferView": 1,
      "byteOffset": 82224,
      "componentType": 5126,
      "count": 912,
      "max": [
        1.4544830322265625,
        0.871491014957428,
        -1.7277940511703491
      ],
      "min": [
        -2.1001319885253906,
        -0.913299024105072,
        -4.041225910186768
      ],
      "type": "VEC3"
    },
    {
      "bufferView": 1,
      "byteOffset": 93168,
      "componentType": 5126,
      "count": 912,
      "max": [
        0.9997902512550354,
        0.9999802112579346,
        0.996164858341217
      ],
      "min": [
        -0.9997902512550354,
        -0.9973633885383606,
        -0.9984338879585266
      ],
      "type": "VEC3"
    },
    {
      "bufferView": 0,
      "byteOffset": 75816,
      "componentType": 5125,
      "count": 5052,
      "type": "SCALAR"
    },
    {
      "bufferView": 1,
      "byteOffset": 104112,
      "componentType": 5126,
      "count": 246,
      "max": [
        0.9775940179824829,
        0.35642901062965393,
        -0.14386500418186188
      ],
      "min": [
        -1.6232420206069946,
        -1.3545860052108765,
        -2.4359960556030273
      ],
      "type": "VEC3"
    },
    {
      "bufferView": 1,
      "byteOffset": 107064,
      "componentType": 5126,
      "count": 246,
      "max": [
        0.9258912801742554,
        0.9844660758972168,
        0.9999585151672363
      ],
      "min": [
        -0.9258912801742554,
        -0.9990697503089905,
        -0.9952438473701477
      ],
      "type": "VEC3"
    },
    {
      "bufferView": 0,
      "byteOffset": 96024,
      "componentType": 5125,
      "count": 1080,
      "type": "SCALAR"
    },
    {
      "bufferView": 1,
      "byteOffset": 110016,
      "componentType": 5126,
      "count": 220,
      "max": [
        0.36228400468826294,
        0.6974149942398071,
        4.273499965667725
      ],
      "min": [
        -1.0079319477081299,
        -0.6974149942398071,
        -1.7615100145339966
      ],
      "type": "VEC3"
    },
    {
      "bufferView": 1,
      "byteOffset": 112656,
      "componentType": 5126,
      "count": 220,
      "max": [
        0.9337985515594482,
        0.9244086742401123,
        0.9955434799194336
      ],
      "min": [
        -0.9337985515594482,
        -0.9244086742401123,
        -0.9995408654212952
      ],
      "type": "VEC3"
    },
    {
      "bufferView": 0,
      "byteOffset": 100344,
      "componentType": 5125,
      "count": 1188,
      "type": "SCALAR"
    }
  ],
  "asset": {
    "extras": {
      "author": "CuaxiloaSP (https://sketchfab.com/hectorcuaxiloaSP)",
      "license": "CC-BY-NC-4.0 (http://creativecommons.org/licenses/by-nc/4.0/)",
      "source": "https://sketchfab.com/3d-models/captain-olimar-53605cfb06e44104b1ca30aae9db9358",
      "title": "Captain Olimar"
    },
    "generator": "Sketchfab-12.68.0",
    "version": "2.0"
  },
  "bufferViews": [
    {
      "buffer": 0,
      "byteLength": 105096,
      "name": "floatBufferViews",
      "target": 34963
    },
    {
      "buffer": 0,
      "byteLength": 115296,
      "byteOffset": 105096,
      "byteStride": 12,
      "name": "floatBufferViews",
      "target": 34962
    }
  ],
  "buffers": [
    {
      "byteLength": 220392,
      "uri": "scene.bin"
    }
  ],
  "materials": [
    {
      "doubleSided": true,
      "name": "Material",
      "pbrMetallicRoughness": {
        "baseColorFactor": [
          0.4316109741500496,
          0.5329208617282817,
          0.06125598727876876,
          1.0
        ],
        "metallicFactor": 0.0,
        "roughnessFactor": 0.6
      }
    },
    {
      "doubleSided": true,
      "name": "Material.001",
      "pbrMetallicRoughness": {
        "baseColorFactor": [
          0.855605185835103,
          0.6887562305219092,
          0.4453664764977752,
          1.0
        ],
        "metallicFactor": 0.0,
        "roughnessFactor": 0.6
      }
    },
    {
      "doubleSided": true,
      "name": "Material.002",
      "pbrMetallicRoughness": {
        "baseColorFactor": [
          0.005572829822086463,
          0.005572829822086463,
          0.005572829822086463,
          1.0
        ],
        "metallicFactor": 0.0,
        "roughnessFactor": 0.6
      }
    },
    {
      "doubleSided": true,
      "name": "Material.003",
      "pbrMetallicRoughness": {
        "baseColorFactor": [
          0.9956407189352425,
          0.5757194013916181,
          1.0,
          1.0
        ],
        "metallicFactor": 0.0,
        "roughnessFactor": 0.6
      }
    },
    {
      "doubleSided": true,
      "name": "Material.004",
      "pbrMetallicRoughness": {
        "baseColorFactor": [
          0.15766773041875703,
          0.0341686897508534,
          0.0341686897508534,
          1.0
        ],
        "metallicFactor": 0.0,
        "roughnessFactor": 0.6
      }
    },
    {
      "alphaMode": "BLEND",
      "doubleSided": true,
      "name": "Material.005",
      "pbrMetallicRoughness": {
        "baseColorFactor": [
          1.0,
          1.0,
          1.0,
          0.13586128048780488
        ],
        "metallicFactor": 0.0,
        "roughnessFactor": 0.6
      }
    },
    {
      "doubleSided": true,
      "emissiveFactor": [
        1.0,
        0.023149118417772604,
        0.023149118417772604
      ],
      "name": "Material.006",
      "pbrMetallicRoughness": {
        "baseColorFactor": [
          0.42808864491572235,
          0.01666219566785027,
          0.01666219566785027,
          1.0
        ],
        "metallicFactor": 0.0,
        "roughnessFactor": 0.6
      }
    },
    {
      "doubleSided": true,
      "name": "Material.007",
      "pbrMetallicRoughness": {
        "metallicFactor": 0.0,
        "roughnessFactor": 0.6
      }
    },
    {
      "doubleSided": true,
      "name": "Material.008",
      "pbrMetallicRoughness": {
        "baseColorFactor": [
          0.05729783433459911,
          0.04418427318285575,
          0.04418427318285575,
          1.0
        ],
        "metallicFactor": 0.0,
        "roughnessFactor": 0.6
      }
    },
    {
      "doubleSided": true,
      "name": "Material.009",
      "pbrMetallicRoughness": {
        "baseColorFactor": [
          1.0,
          0.0,
          0.0,
          1.0
        ],
        "metallicFactor": 0.0,
        "roughnessFactor": 0.6
      }
    }
  ],
  "meshes": [
    {
      "name": "Object_0",
      "primitives": [
        {
          "attributes": {
            "NORMAL": 1,
            "POSITION": 0
          },
          "indices": 2,
          "material": 1,
          "mode": 4
        }
      ]
    },
    {
      "name": "Object_1",
      "primitives": [
        {
          "attributes": {
            "NORMAL": 4,
            "POSITION": 3
          },
          "indices": 5,
          "material": 0,
          "mode": 4
        }
      ]
    },
    {
      "name": "Object_2",
      "primitives": [
        {
          "attributes": {
            "NORMAL": 7,
            "POSITION": 6
          },
          "indices": 8,
          "material": 3,
          "mode": 4
        }
      ]
    },
    {
      "name": "Object_3",
      "primitives": [
        {
          "attributes": {
            "NORMAL": 10,
            "POSITION": 9
          },
          "indices": 11,
          "material": 7,
          "mode": 4
        }
      ]
    },
    {
      "name": "Object_4",
      "primitives": [
        {
          "attributes": {
            "NORMAL": 13,
            "POSITION": 12
          },
          "indices": 14,
          "material": 5,
          "mode": 4
        }
      ]
    },
    {
      "name": "Object_5",
      "primitives": [
        {
          "attributes": {
            "NORMAL": 16,
            "POSITION": 15
          },
          "indices": 17,
          "material": 4,
          "mode": 4
        }
      ]
    },
    {
      "name": "Object_6",
      "primitives": [
        {
          "attributes": {
            "NORMAL": 19,
            "POSITION": 18
          },
          "indices": 20,
          "material": 6,
          "mode": 4
        }
      ]
    },
    {
      "name": "Object_7",
      "primitives": [
        {
          "attributes": {
            "NORMAL": 22,
            "POSITION": 21
          },
          "indices": 23,
          "material": 9,
          "mode": 4
        }
      ]
    },
    {
      "name": "Object_8",
      "primitives": [
        {
          "attributes": {
            "NORMAL": 25,
            "POSITION": 24
          },
          "indices": 26,
          "material": 2,
          "mode": 4
        }
      ]
    },
    {
      "name": "Object_9",
      "primitives": [
        {
          "attributes": {
            "NORMAL": 28,
            "POSITION": 27
          },
          "indices": 29,
          "material": 8,
          "mode": 4
        }
      ]
    }
  ],
  "nodes": [
    {
      "children": [
        1
      ],
      "matrix": [
        1.0,
        0.0,
        0.0,
        0.0,
        0.0,
        2.220446049250313e-16,
        -1.0,
        0.0,
        0.0,
        1.0,
        2.220446049250313e-16,
        0.0,
        0.0,
        0.0,
        0.0,
        1.0
      ],
      "name": "Sketchfab_model"
    },
    {
      "children": [
        2,
        3,
        4,
        5,
        6,
        7,
        8,
        9,
        10,
        11
      ],
      "name": "4d95c4a036cc44c18a10e27414408dc9.obj.cleaner.materialmerger.gles"
    },
    {
      "mesh": 0,
      "name": "Object_2"
    },
    {
      "mesh": 1,
      "name": "Object_3"
    },
    {
      "mesh": 2,
      "name": "Object_4"
    },
    {
      "mesh": 3,
      "name": "Object_5"
    },
    {
      "mesh": 4,
      "name": "Object_6"
    },
    {
      "mesh": 5,
      "name": "Object_7"
    },
    {
      "mesh": 6,
      "name": "Object_8"
    },
    {
      "mesh": 7,
      "name": "Object_9"
    },
    {
      "mesh": 8,
      "name": "Object_10"
    },
    {
      "mesh": 9,
      "name": "Object_11"
    }
  ],
  "scene": 0,
  "scenes": [
    {
      "name": "Sketchfab_Scene",
      "nodes": [
        0
      ]
    }
  ]
}
