{
  "accessors": [
    {
      "bufferView": 2,
      "componentType": 5126,
      "count": 256,
      "max": [
        -9.968290328979492,
        7.391510009765625,
        108.3280029296875
      ],
      "min": [
        -15.399999618530273,
        2.7962300777435303,
        102.60099792480469
      ],
      "type": "VEC3"
    },
    {
      "bufferView": 2,
      "byteOffset": 3072,
      "componentType": 5126,
      "count": 256,
      "max": [
        0.9909899830818176,
        0.9992259740829468,
        0.9888209700584412
      ],
      "min": [
        -0.9909899830818176,
        -0.9988859295845032,
        -0.9974984526634216
      ],
      "type": "VEC3"
    },
    {
      "bufferView": 1,
      "componentType": 5126,
      "count": 256,
      "max": [
        26.295000076293945,
        8.293990135192871
      ],
      "min": [
        25.70870018005371,
        7.711190223693848
      ],
      "type": "VEC2"
    },
    {
      "bufferView": 0,
      "componentType": 5125,
      "count": 1080,
      "type": "SCALAR"
    },
    {
      "bufferView": 2,
      "byteOffset": 6144,
      "componentType": 5126,
      "count": 112,
      "max": [
        -12.230400085449219,
        11.623700141906738,
        106.64199829101563
      ],
      "min": [
        -13.206999778747559,
        10.647000312805176,
        105.71299743652344
      ],
      "type": "VEC3"
    },
    {
      "bufferView": 2,
      "byteOffset": 7488,
      "componentType": 5126,
      "count": 112,
      "max": [
        1.0,
        1.0,
        0.9517827033996582
      ],
      "min": [
        -1.0,
        -1.0,
        -0.9517827033996582
      ],
      "type": "VEC3"
    },
    {
      "bufferView": 1,
      "byteOffset": 2048,
      "componentType": 5126,
      "count": 112,
      "max": [
        -0.5971270203590393,
        1.3721510171890259
      ],
      "min": [
        -0.6958889961242676,
        1.285830020904541
      ],
      "type": "VEC2"
    },
    {
      "bufferView": 0,
      "byteOffset": 4320,
      "componentType": 5125,
      "count": 420,
      "type": "SCALAR"
    },
    {
      "bufferView": 2,
      "byteOffset": 8832,
      "componentType": 5126,
      "count": 863,
      "max": [
        -10.496800422668457,
        6.40733003616333,
        107.7030029296875
      ],
      "min": [
        -14.928999900817871,
        3.0607900619506836,
        102.87300109863281
      ],
      "type": "VEC3"
    },
    {
      "bufferView": 2,
      "byteOffset": 19188,
      "componentType": 5126,
      "count": 863,
      "max": [
        0.9994733929634094,
        0.9980219602584839,
        0.9989476799964905
      ],
      "min": [
        -0.9995972514152527,
        -0.9974984526634216,
        -0.9997212290763855
      ],
      "type": "VEC3"
    },
    {
      "bufferView": 1,
      "byteOffset": 2944,
      "componentType": 5126,
      "count": 863,
      "max": [
        -0.00485244020819664,
        0.9797052145004272
      ],
      "min": [
        -0.9893180131912231,
        0.02163797616958618
      ],
      "type": "VEC2"
    },
    {
      "bufferView": 0,
      "byteOffset": 6000,
      "componentType": 5125,
      "count": 8640,
      "type": "SCALAR"
    },
    {
      "bufferView": 2,
      "byteOffset": 29544,
      "componentType": 5126,
      "count": 935,
      "max": [
        -9.923080444335938,
        11.623700141906738,
        107.66100311279297
      ],
      "min": [
        -15.497599601745605,
        0.004969839937984943,
        104.89399719238281
      ],
      "type": "VEC3"
    },
    {
      "bufferView": 2,
      "byteOffset": 40764,
      "componentType": 5126,
      "count": 935,
      "max": [
        1.0,
        1.0,
        0.9998760223388672
      ],
      "min": [
        -1.0,
        -1.0,
        -0.9992259740829468
      ],
      "type": "VEC3"
    },
    {
      "bufferView": 1,
      "byteOffset": 9848,
      "componentType": 5126,
      "count": 935,
      "max": [
        1.0392999649047852,
        0.9933193922042847
      ],
      "min": [
        0.005188069771975279,
        0.5034559965133667
      ],
      "type": "VEC2"
    },
    {
      "bufferView": 0,
      "byteOffset": 40560,
      "componentType": 5125,
      "count": 6888,
      "type": "SCALAR"
    },
    {
      "bufferView": 2,
      "byteOffset": 51984,
      "componentType": 5126,
      "count": 385,
      "max": [
        -10.837699890136719,
        11.09220027923584,
        106.74800109863281
      ],
      "min": [
        -14.583800315856934,
        2.192840099334717,
        103.90499877929688
      ],
      "type": "VEC3"
    },
    {
      "bufferView": 2,
      "byteOffset": 56604,
      "componentType": 5126,
      "count": 385,
      "max": [
        1.0,
        0.9992259740829468,
        1.0
      ],
      "min": [
        -1.0,
        -0.9947196841239929,
        -1.0
      ],
      "type": "VEC3"
    },
    {
      "bufferView": 1,
      "byteOffset": 17328,
      "componentType": 5126,
      "count": 385,
      "max": [
        1.0919699668884277,
        0.9901019930839539
      ],
      "min": [
        0.13780899345874786,
        0.030036985874176025
      ],
      "type": "VEC2"
    },
    {
      "bufferView": 0,
      "byteOffset": 68112,
      "componentType": 5125,
      "count": 2664,
      "type": "SCALAR"
    }
  ],
  "asset": {
    "extras": {
      "author": "ThatNintendoFan (https://sketchfab.com/ThatNintendoFan)",
      "license": "CC-BY-4.0 (http://creativecommons.org/licenses/by/4.0/)",
      "source": "https://sketchfab.com/3d-models/olimar-581a1b887ac64d3d932bfd0de9103e21",
      "title": "Olimar"
    },
    "generator": "Sketchfab-16.12.0",
    "version": "2.0"
  },
  "bufferViews": [
    {
      "buffer": 0,
      "byteLength": 78768,
      "name": "floatBufferViews",
      "target": 34963
    },
    {
      "buffer": 0,
      "byteLength": 20408,
      "byteOffset": 78768,
      "byteStride": 8,
      "name": "floatBufferViews",
      "target": 34962
    },
    {
      "buffer": 0,
      "byteLength": 61224,
      "byteOffset": 99176,
      "byteStride": 12,
      "name": "floatBufferViews",
      "target": 34962
    }
  ],
  "buffers": [
    {
      "byteLength": 160400,
      "uri": "scene.bin"
    }
  ],
  "extensionsRequired": [
    "KHR_materials_pbrSpecularGlossiness"
  ],
  "extensionsUsed": [
    "KHR_materials_pbrSpecularGlossiness"
  ],
  "images": [
    {
      "uri": "textures/material_3_diffuse.png"
    },
    {
      "uri": "textures/material_2_diffuse.png"
    }
  ],
  "materials": [
    {
      "doubleSided": true,
      "extensions": {
        "KHR_materials_pbrSpecularGlossiness": {
          "diffuseFactor": [
            1.0,
            1.0,
            1.0,
            1.0
          ],
          "diffuseTexture": {
            "index": 0
          },
          "glossinessFactor": 0.0,
          "specularFactor": [
            0.00226295,
            0.00226295,
            0.00226295
          ]
        }
      },
      "name": "material_3"
    },
    {
      "doubleSided": true,
      "extensions": {
        "KHR_materials_pbrSpecularGlossiness": {
          "diffuseFactor": [
            1.0,
            0.00604059,
            0.00604059,
            1.0
          ],
          "glossinessFactor": 0.0,
          "specularFactor": [
            0.0050282,
            2.3328e-05,
            2.3328e-05
          ]
        }
      },
      "name": "material_1"
    },
    {
      "doubleSided": true,
      "extensions": {
        "KHR_materials_pbrSpecularGlossiness": {
          "diffuseFactor": [
            1.0,
            1.0,
            1.0,
            1.0
          ],
          "diffuseTexture": {
            "index": 0
          },
          "glossinessFactor": 0.0,
          "specularFactor": [
            5.69218e-05,
            5.69218e-05,
            5.69218e-05
          ]
        }
      },
      "name": "material_4"
    },
    {
      "doubleSided": true,
      "extensions": {
        "KHR_materials_pbrSpecularGlossiness": {
          "diffuseFactor": [
            1.0,
            1.0,
            1.0,
            1.0
          ],
          "diffuseTexture": {
            "index": 1
          },
          "glossinessFactor": 0.0,
          "specularFactor": [
            0.00226295,
            0.00226295,
            0.00226295
          ]
        }
      },
      "name": "material_2"
    },
    {
      "alphaMode": "BLEND",
      "doubleSided": true,
      "extensions": {
        "KHR_materials_pbrSpecularGlossiness": {
          "diffuseFactor": [
            0.160444,
            0.499505,
            1.0,
            0.25098
          ],
          "glossinessFactor": 0.0,
          "specularFactor": [
            0.000367136,
            0.00120174,
            0.00226295
          ]
        }
      },
      "name": "material_0"
    }
  ],
  "meshes": [
    {
      "name": "Object_0",
      "primitives": [
        {
          "attributes": {
            "NORMAL": 1,
            "POSITION": 0,
            "TEXCOORD_0": 2
          },
          "indices": 3,
          "material": 4,
          "mode": 4
        }
      ]
    },
    {
      "name": "Object_1",
      "primitives": [
        {
          "attributes": {
            "NORMAL": 5,
            "POSITION": 4,
            "TEXCOORD_0": 6
          },
          "indices": 7,
          "material": 1,
          "mode": 4
        }
      ]
    },
    {
      "name": "Object_2",
      "primitives": [
        {
          "attributes": {
            "NORMAL": 9,
            "POSITION": 8,
            "TEXCOORD_0": 10
          },
          "indices": 11,
          "material": 3,
          "mode": 4
        }
      ]
    },
    {
      "name": "Object_3",
      "primitives": [
        {
          "attributes": {
            "NORMAL": 13,
            "POSITION": 12,
            "TEXCOORD_0": 14
          },
          "indices": 15,
          "material": 0,
          "mode": 4
        }
      ]
    },
    {
      "name": "Object_4",
      "primitives": [
        {
          "attributes": {
            "NORMAL": 17,
            "POSITION": 16,
            "TEXCOORD_0": 18
          },
          "indices": 19,
          "material": 2,
          "mode": 4
        }
      ]
    }
  ],
  "nodes": [
    {
      "children": [
        1
      ],
      "matrix": [
        1.0,
        0.0,
        0.0,
        0.0,
        0.0,
        2.220446049250313e-16,
        -1.0,
        0.0,
        0.0,
        1.0,
        2.220446049250313e-16,
        0.0,
        0.0,
        0.0,
        0.0,
        1.0
      ],
      "name": "Sketchfab_model"
    },
    {
      "children": [
        2
      ],
      "name": "root"
    },
    {
      "children": [
        3
      ],
      "matrix": [
        1.0,
        0.0,
        0.0,
        0.0,
        0.0,
        2.220446049250313e-16,
        1.0,
        0.0,
        0.0,
        -1.0,
        2.220446049250313e-16,
        0.0,
        0.0,
        0.0,
        0.0,
        1.0
      ],
      "name": "GLTF_SceneRootNode"
    },
    {
      "children": [
        4,
        5,
        6,
        7,
        8
      ],
      "name": "Asset3DLoader.sceneRoot_0"
    },
    {
      "mesh": 0,
      "name": "Object_4"
    },
    {
      "mesh": 1,
      "name": "Object_5"
    },
    {
      "mesh": 2,
      "name": "Object_6"
    },
    {
      "mesh": 3,
      "name": "Object_7"
    },
    {
      "mesh": 4,
      "name": "Object_8"
    }
  ],
  "samplers": [
    {
      "magFilter": 9729,
      "minFilter": 9987,
      "wrapS": 10497,
      "wrapT": 10497
    }
  ],
  "scene": 0,
  "scenes": [
    {
      "name": "Sketchfab_Scene",
      "nodes": [
        0
      ]
    }
  ],
  "textures": [
    {
      "sampler": 0,
      "source": 0
    },
    {
      "sampler": 0,
      "source": 1
    }
  ]
}
